<svg xmlns="http://www.w3.org/2000/svg" viewBox="0 0 64 64" fill="none">
  <defs>
    <linearGradient id="knightGrad" x1="16" y1="8" x2="48" y2="56" gradientUnits="userSpaceOnUse">
      <stop offset="0%" stop-color="hsl(210, 100%, 70%)" />
      <stop offset="100%" stop-color="hsl(210, 100%, 50%)" />
    </linearGradient>
  </defs>
  <!-- Knight silhouette – minimal, modern -->
  <path d="M20 54h24v-4H20v4z" fill="url(#knightGrad)" />
  <path d="M18 50h28v-3c0-1-0.5-2-1.5-2.5L38 40v-4l4-3c1-0.8 1.5-2 1.5-3.2V22c0-2-1-3.8-2.5-5l-3-2.4c-0.8-0.6-1.2-1.5-1.2-2.6V10h-4v2c0 1.8-0.8 3.5-2.2 4.6L24 22c-1.2 1-2 2.5-2 4.2V38c0 1 0.4 2 1 2.8L26 44v2l-6.5 2.5C18.5 49 18 49.8 18 50z" fill="url(#knightGrad)" />
  <!-- Eye -->
  <circle cx="30" cy="24" r="2" fill="hsl(228, 28%, 6%)" />
  <!-- Ear notch -->
  <path d="M29 12l-3 5h4l-1-5z" fill="url(#knightGrad)" opacity="0.7" />
</svg>
